<svg width="258" height="51" viewBox="0 0 258 51" fill="none" xmlns="http://www.w3.org/2000/svg">
    <path d="M12.208 25.5L6.37074 31.079L0.538574 25.5L6.37074 19.9211L12.208 25.5ZM26.3595 11.9532L36.3539 21.5185L42.1861 15.9395L26.3595 0.800049L10.533 15.9395L16.3651 21.5185L26.3595 11.9532ZM46.3534 19.9211L40.5212 25.5L46.3534 31.079L52.1805 25.5L46.3534 19.9211ZM26.3595 39.0469L16.3651 29.4864L10.533 35.0606L26.3595 50.2L42.1861 35.0606L36.3539 29.4864L26.3595 39.0469ZM26.3595 31.079L32.1917 25.5L26.3595 19.9211L20.5274 25.5L26.3595 31.079ZM87.9101 31.6147V31.5375C87.9101 27.8986 85.892 26.0792 82.6077 24.8823C84.6257 23.7964 86.331 22.0928 86.331 19.0379V18.9607C86.331 14.704 82.7691 11.9532 76.9823 11.9532H63.8448V39.0469H77.3153C83.7075 39.0469 87.9202 36.5711 87.9202 31.6147H87.9101ZM80.1406 20.0321C80.1406 22.0445 78.4 22.8988 75.6504 22.8988H69.9141V17.1798H76.0641C78.6926 17.1798 80.1507 18.1837 80.1507 19.9645L80.1406 20.0321ZM81.7197 30.8715C81.7197 32.884 80.0599 33.8106 77.3052 33.8106H69.9141V27.86H77.1135C80.3121 27.86 81.7298 28.9845 81.7298 30.8039L81.7197 30.8715ZM101.002 39.0469V11.9532H94.7513V39.0469H101.002ZM134.497 39.0469V11.9532H128.327V28.637L115.058 11.9532H109.312V39.0469H115.462V21.8225L129.174 39.0469H134.497ZM169.01 39.0469L156.852 11.7601H151.105L138.972 39.0469H145.324L147.922 32.9708H159.899L162.487 39.0469H169.01ZM157.684 27.7056H150.137L153.9 18.9221L157.684 27.7056ZM198.711 39.0469V11.9532H192.541V28.637L179.267 11.9532H173.526V39.0469H179.671V21.8225L193.389 39.0469H198.711ZM230.874 34.6745L226.913 30.8425C224.689 32.773 222.706 34.0133 219.467 34.0133C214.613 34.0133 211.253 30.1524 211.253 25.5V25.4228C211.253 20.7801 214.694 16.9868 219.467 16.9868C222.297 16.9868 224.512 18.1451 226.712 20.0417L230.662 15.6693C228.033 13.1935 224.84 11.4899 219.497 11.4899C210.799 11.4899 204.73 17.7976 204.73 25.4856V25.5628C204.73 33.3425 210.92 39.4957 219.255 39.4957C224.709 39.5102 227.943 37.6522 230.854 34.6745H230.874ZM257.462 39.0469V33.7382H242.064V28.0386H255.418V22.7299H242.064V17.2571H257.24V11.9483H235.874V39.0421L257.462 39.0469Z"
          fill="#F0B90B"/>
</svg>
